<svg id="レイヤー_1" data-name="レイヤー 1" xmlns="http://www.w3.org/2000/svg" width="1000" height="504.41" viewBox="0 0 1000 504.41"><defs><style>.cls-1{fill:#82009f;}.cls-2{fill:#ff0;}.cls-3{fill:#fff;}.cls-4{font-size:320.01px;stroke:#4ab5ff;stroke-miterlimit:10;stroke-width:6px;font-family:ToppanBunkyuMidashiGothicStdN-ExtraBold-83pv-RKSJ-H, Toppan Bunkyu Midashi Gothic;}</style></defs><path class="cls-1" d="M440,715a18,18,0,0,1-18-18V289a18,18,0,0,1,18-18H573.82a18,18,0,0,1,18,18V649a30,30,0,0,0,30,30H1392a18,18,0,0,1,0,36Z" transform="translate(-416 -265)"/><path d="M573.82,277a12,12,0,0,1,12,12V649a36,36,0,0,0,36,36H1392a12,12,0,0,1,0,24H440a12,12,0,0,1-12-12V289a12,12,0,0,1,12-12H573.82m0-12H440a24,24,0,0,0-24,24V697a24,24,0,0,0,24,24h952a24,24,0,0,0,0-48H621.82a24,24,0,0,1-24-24V289a24,24,0,0,0-24-24Z" transform="translate(-416 -265)"/><ellipse class="cls-2" cx="328.5" cy="274.5" rx="117.5" ry="128.5"/><path d="M744.5,417C806,417,856,472,856,539.5S806,662,744.5,662,633,607.05,633,539.5,683,417,744.5,417m0-12C676.29,405,621,465.22,621,539.5S676.29,674,744.5,674,868,613.78,868,539.5,812.71,405,744.5,405Z" transform="translate(-416 -265)"/><ellipse class="cls-3" cx="328.5" cy="311" rx="60.5" ry="66"/><path d="M744.5,516c30,0,54.5,26.92,54.5,60s-24.45,60-54.5,60S690,609.08,690,576s24.45-60,54.5-60m0-12c-36.73,0-66.5,32.24-66.5,72s29.77,72,66.5,72S811,615.76,811,576s-29.77-72-66.5-72Z" transform="translate(-416 -265)"/><text class="cls-4" transform="translate(381.07 408.61) scale(1.13 1)">ｇ</text><ellipse class="cls-2" cx="790.5" cy="274.5" rx="117.5" ry="128.5"/><path d="M1206.5,417C1268,417,1318,472,1318,539.5S1268,662,1206.5,662s-111.5-55-111.5-122.5S1145,417,1206.5,417m0-12c-68.21,0-123.5,60.22-123.5,134.5S1138.29,674,1206.5,674,1330,613.78,1330,539.5,1274.71,405,1206.5,405Z" transform="translate(-416 -265)"/><ellipse class="cls-3" cx="790.5" cy="311" rx="60.5" ry="66"/><path d="M1206.5,516c30,0,54.5,26.92,54.5,60s-24.45,60-54.5,60-54.5-26.92-54.5-60,24.45-60,54.5-60m0-12c-36.73,0-66.5,32.24-66.5,72s29.77,72,66.5,72,66.5-32.24,66.5-72-29.77-72-66.5-72Z" transform="translate(-416 -265)"/><circle class="cls-1" cx="357.5" cy="287.5" r="22.5"/><path d="M773.5,536A16.5,16.5,0,1,1,757,552.5,16.52,16.52,0,0,1,773.5,536m0-12A28.5,28.5,0,1,0,802,552.5,28.5,28.5,0,0,0,773.5,524Z" transform="translate(-416 -265)"/><circle class="cls-1" cx="818.5" cy="287.5" r="22.5"/><path d="M1234.5,536a16.5,16.5,0,1,1-16.5,16.5,16.52,16.52,0,0,1,16.5-16.5m0-12a28.5,28.5,0,1,0,28.5,28.5,28.5,28.5,0,0,0-28.5-28.5Z" transform="translate(-416 -265)"/></svg>